<?xml version="1.0" encoding="utf-8"?>
<!-- Generator: Adobe Illustrator 26.1.0, SVG Export Plug-In . SVG Version: 6.00 Build 0)  -->
<svg version="1.1" id="Layer_1" xmlns="http://www.w3.org/2000/svg" xmlns:xlink="http://www.w3.org/1999/xlink" x="0px" y="0px"
	 viewBox="0 0 520 1000" style="enable-background:new 0 0 520 1000;" xml:space="preserve">
<style type="text/css">
	.st0{fill:#0C4E6B;}
</style>
<g>
	<path class="st0" d="M60.8,599.8c0.1-1.4,0.1-2.9,0.2-4.3c3.2-43.7,20.6-83.6,47.6-115c1-1.1,1.9-2.2,2.9-3.2
		c4.4-4.9,9-9.5,13.8-13.9c35.5-32.6,82.8-52.5,134.7-52.5s99.2,19.9,134.7,52.5c5.9,1,11.7,2.3,17.4,4c30,8.8,55.4,26.4,73.8,49.7
		c-0.7-1.7-1.4-3.4-2.2-5c0,0,0,0,0,0c-0.2-0.4-0.4-0.8-0.5-1.2c-0.4-0.9-0.8-1.7-1.1-2.5c-0.2-0.4-0.4-0.9-0.6-1.3
		c-0.4-0.9-0.9-1.8-1.3-2.8c-0.1-0.2-0.2-0.5-0.3-0.7c-0.6-1.1-1.1-2.3-1.7-3.4c-0.7-1.3-1.3-2.6-2-3.9c-0.8-1.5-1.6-3-2.5-4.6
		c-1.3-2.3-2.6-4.6-4-6.9c-2.2-3.7-4.5-7.4-7-10.9c0,0-0.1-0.1-0.1-0.1c-4.1-6-8.4-11.9-13-17.5c-0.9-1.1-1.8-2.2-2.8-3.3
		c-4.7-5.5-9.6-10.9-14.7-16c-1-1-2-2-3-3c0,0,0,0-0.1-0.1c-1-1-2.1-2-3.1-3c-3.2-3-6.5-5.8-9.8-8.6c-3.3-2.8-6.8-5.5-10.2-8.1
		c-1.2-0.9-2.3-1.7-3.5-2.6c-1.2-0.8-2.4-1.7-3.6-2.5c-2.4-1.7-4.8-3.3-7.3-4.8c-4.2-2.7-8.6-5.3-13-7.8c0,0-0.1,0-0.1-0.1
		c-5.7-3.2-11.6-6.2-17.6-8.9c-0.1,0-0.2-0.1-0.2-0.1c-1.9-0.9-3.9-1.7-5.8-2.5c-2.7-1.2-5.4-2.2-8.2-3.3c-1.4-0.5-2.8-1-4.1-1.5
		c-0.7-0.2-1.4-0.5-2.1-0.7c-4.9-1.7-9.8-3.3-14.9-4.7c-4.3-1.2-8.7-2.3-13-3.2c-0.7-0.2-1.5-0.3-2.2-0.5c-0.7-0.2-1.5-0.3-2.2-0.4
		c-1.5-0.3-2.9-0.6-4.4-0.9c-0.8-0.1-1.7-0.3-2.5-0.4c-0.7-0.1-1.3-0.2-2-0.3c-2-0.3-4.1-0.6-6.1-0.9c-0.5-0.1-1.1-0.2-1.6-0.2
		c-0.4-0.1-0.8-0.1-1.3-0.2c-0.8-0.1-1.5-0.2-2.3-0.3c-0.8-0.1-1.5-0.2-2.3-0.2s-1.5-0.2-2.3-0.2c-0.8-0.1-1.5-0.1-2.3-0.2
		c-1.4-0.1-2.8-0.2-4.3-0.3c-1.7-0.1-3.3-0.2-5-0.3c-1.5-0.1-3.1-0.1-4.6-0.2c-0.2,0-0.5,0-0.7,0c-1.2,0-2.5-0.1-3.7-0.1
		c-0.9,0-1.7,0-2.6,0c-0.8,0-1.6,0-2.4,0c-1.4,0-2.7,0-4.1,0.1c-0.2,0-0.4,0-0.6,0c-1.4,0-2.8,0.1-4.2,0.2c-0.3,0-0.5,0-0.8,0
		c-1.4,0.1-2.8,0.2-4.2,0.2c-0.8,0.1-1.5,0.1-2.3,0.2c-0.8,0-1.5,0.1-2.3,0.2c-0.3,0-0.5,0-0.8,0.1c-1.2,0.1-2.5,0.2-3.7,0.4
		c-0.9,0.1-1.9,0.2-2.8,0.3c-3.1,0.3-6.2,0.8-9.2,1.2c-0.8,0.1-1.5,0.2-2.3,0.4c-0.8,0.1-1.5,0.3-2.3,0.4c-0.8,0.1-1.5,0.3-2.3,0.4
		c-3,0.5-6,1.2-9,1.8c-1.5,0.3-3,0.7-4.5,1c-0.7,0.2-1.5,0.4-2.2,0.5c-0.7,0.2-1.5,0.4-2.2,0.6c-0.7,0.2-1.5,0.4-2.2,0.6
		c-0.7,0.2-1.5,0.4-2.2,0.6c-0.7,0.2-1.5,0.4-2.2,0.6c-0.7,0.2-1.5,0.4-2.2,0.6c-0.7,0.2-1.5,0.4-2.2,0.7c-1.4,0.5-2.9,0.9-4.3,1.4
		c-0.7,0.2-1.4,0.5-2.1,0.7c-1.4,0.5-2.8,1-4.3,1.5c-1.4,0.5-2.8,1.1-4.2,1.6c-25.9,10-49.7,24.3-70.5,42.1
		c-27.8,23.8-50.3,53.7-65.3,87.6l0,0c-10.9,24.6-17.8,51.4-19.9,79.5c0,0.1,0,0.2,0,0.2c-0.1,1.9-0.2,3.8-0.3,5.7
		c0,0.8-0.1,1.6-0.1,2.4h0H60.8z"/>
	<path class="st0" d="M111.5,745.6c-28.6-31.9-47.1-73-50.4-118.2c-0.1-0.6-0.1-1.3-0.2-1.9c-0.1-0.8-0.1-1.6-0.2-2.4
		c-0.1-1.8-0.2-3.7-0.2-5.5c0-0.8,0-1.7,0-2.5c0-0.8,0-1.6,0-2.4H15.7c0,0.8-0.1,1.6-0.1,2.4c0,2.7,0.1,5.4,0.2,8.1
		c0,0.8,0.1,1.6,0.1,2.4c0.1,1.9,0.2,3.8,0.3,5.7c0,0.1,0,0.1,0,0.2C21.9,685.8,60.4,730.6,111.5,745.6z"/>
	<path class="st0" d="M169.8,521.7c0.4,0.1,0.7,0.2,1,0.2c-1-0.3-2-0.5-3-0.7C168.5,521.4,169.2,521.5,169.8,521.7z"/>
	<path class="st0" d="M229.5,570.4c0.6-2.2,1.2-4.5,1.9-6.6c0-0.2,0.1-0.3,0.1-0.5c4.1-13,10.1-25.4,17.8-36.8
		c0.8-1.2,1.7-2.5,2.6-3.7c-24.5-29.6-61.5-48.5-102.9-48.5c-6.1,0-12,0.4-17.9,1.2c-3.5,3.3-6.8,6.8-10,10.4
		c-7.6,8.4-14.3,17.4-20.2,26.9c0,0.1-0.1,0.2-0.1,0.2c-6.8,10.9-12.3,22.5-16.5,34.5c0,0.1-0.1,0.2-0.1,0.2
		c11.1-12,25.5-20.9,41.7-25.3c0.8-0.2,1.5-0.4,2.2-0.6c2.6-0.6,5.3-1.2,8-1.5c1.1-0.2,2.1-0.3,3.2-0.4c0,0,0.1,0,0.2,0
		c1-0.1,2-0.2,3.1-0.3c1-0.1,2-0.1,3.1-0.2c1.2,0,2.3-0.1,3.5-0.1c1.7,0,3.3,0,5,0.2c0.6,0,1.2,0.1,1.9,0.1c0.8,0.1,1.6,0.1,2.4,0.2
		c0.4,0,0.8,0.1,1.2,0.1c0.2,0,0.4,0,0.6,0.1c0.2,0,0.4,0,0.6,0.1c0.3,0,0.7,0.1,1,0.1c1.3,0.2,2.5,0.4,3.8,0.6
		c0.8,0.1,1.5,0.3,2.3,0.5c-0.8-0.2-1.5-0.3-2.3-0.5c8.2,1.5,16.1,4.2,23.3,7.9c-5.6-2.8-11.6-5.1-17.9-6.6c0.3,0.1,0.7,0.2,1.1,0.3
		c25.5,6.8,46.5,24.9,57.3,48.4C229.4,570.6,229.5,570.5,229.5,570.4z M210.6,544.1c0.3,0.3,0.6,0.6,0.9,0.9
		C211.3,544.6,211,544.4,210.6,544.1z M189.2,528.8c0.8,0.4,1.7,0.9,2.5,1.3C190.9,529.6,190,529.2,189.2,528.8z M192.5,530.5
		c0.7,0.4,1.5,0.8,2.2,1.3C193.9,531.3,193.2,530.9,192.5,530.5z M195.7,532.4c0.7,0.4,1.3,0.8,1.9,1.2
		C197,533.2,196.3,532.8,195.7,532.4z M198.8,534.4c0.6,0.4,1.2,0.8,1.7,1.2C200,535.2,199.4,534.8,198.8,534.4z M201.8,536.6
		c0.5,0.4,1.1,0.8,1.6,1.2C202.9,537.4,202.4,537,201.8,536.6z M204.8,538.9c0.5,0.4,0.9,0.8,1.4,1.1
		C205.8,539.7,205.3,539.3,204.8,538.9z M207.7,541.4c0.4,0.4,0.8,0.7,1.2,1.1C208.5,542.1,208.1,541.7,207.7,541.4z"/>
	<path class="st0" d="M171,522c0,0-0.1,0-0.1,0C170.9,521.9,171,522,171,522z"/>
	<path class="st0" d="M504.3,612.6h-44.8c0,0.8,0,1.6,0,2.4c0,0.8,0,1.7,0,2.5c0,1.9-0.1,3.7-0.2,5.5c0,0.8-0.1,1.6-0.2,2.4
		c-0.1,0.6-0.1,1.3-0.2,1.9c-3.3,45.3-21.8,86.4-50.4,118.2c-5.3,5.9-11,11.5-16.9,16.8C356.4,793.3,310.3,812,260,812
		s-96.4-18.8-131.6-49.7c-6.9-1-13.8-2.5-20.5-4.4c-15.6-4.6-30-11.6-42.9-20.6c-10.8-7.5-20.5-16.4-28.8-26.5
		C74.1,796.8,160.2,857,260,857s185.8-60.1,223.7-146.1l0,0c10.9-24.6,17.8-51.4,19.9-79.5c0-0.1,0-0.1,0-0.2
		c0.1-1.9,0.3-3.8,0.3-5.7c0-0.8,0.1-1.6,0.1-2.4c0.1-2.7,0.2-5.4,0.2-8.1C504.4,614.2,504.3,613.4,504.3,612.6z"/>
	<path class="st0" d="M290.6,654.5c-0.2,0.7-0.4,1.4-0.6,2.2c-0.2,0.7-0.4,1.4-0.6,2.1c0,0,0,0,0,0c-0.2,0.7-0.4,1.3-0.6,2
		c0,0.2-0.1,0.3-0.2,0.5c-0.2,0.6-0.4,1.2-0.6,1.8c-0.5,1.5-1,2.9-1.5,4.3c-0.2,0.6-0.4,1.2-0.7,1.8c-0.4,1-0.7,1.9-1.1,2.8
		c-0.4,0.9-0.7,1.8-1.1,2.8c-0.4,1-0.9,2.1-1.4,3.1c-0.2,0.4-0.3,0.8-0.5,1.2c-0.2,0.4-0.3,0.7-0.5,1c-0.2,0.5-0.5,1-0.7,1.4
		c-0.7,1.4-1.4,2.8-2.1,4.2c-0.3,0.6-0.6,1.2-1,1.8c-1.6,2.9-3.2,5.7-5,8.5c-0.6,0.9-1.2,1.9-1.8,2.8c-0.8,1.2-1.7,2.5-2.6,3.7
		C292.6,732.1,329.6,751,371,751c5.1,0,10.1-0.3,15-0.8c4.5-4.1,8.8-8.5,13-13.1c1.8-2,3.6-4.1,5.3-6.2c0.3-0.3,0.6-0.7,0.8-1
		c12.6-15.4,22.4-32.5,29.4-50.7C418.3,695.7,395.8,706,371,706C335.4,706,304.6,684.9,290.6,654.5z"/>
	<path class="st0" d="M411.3,480.5c-1-0.3-1.9-0.6-2.9-0.9c-6.4-1.9-12.9-3.3-19.6-4.2c-5.9-0.8-11.8-1.2-17.9-1.2
		c-41.3,0-78.4,18.9-102.9,48.5c-2.9,3.5-5.6,7.1-8.1,10.9c-12.8,19.1-20.8,41.8-22.2,66.1c-0.2,2.6-0.2,5.3-0.2,7.9
		c0,1.7,0,3.3,0.1,4.9c-0.1,1.6-0.1,3.3-0.1,4.9c0,2.3-0.4,4.6-0.4,6.9c0,0.3,0,0.7,0,1c-0.9,10.3-3.6,20.1-7.8,29
		c-14,30.4-44.8,51.5-80.4,51.5c-24.9,0-47.3-10.3-63.4-26.8c8,21.1,20,40.6,35.5,57.8c4.1,4.6,8.5,9,13,13.1
		c4.9,0.6,9.9,0.8,15,0.8c41.3,0,78.4-18.9,102.9-48.5c2.9-3.5,5.6-7.1,8.1-10.8c9.6-14.4,16.5-30.7,20-48.2
		c0.2-0.9,0.3-1.7,0.5-2.6c0.1-0.6,0.2-1.2,0.3-1.8c0.2-1.5,0.5-3,0.7-4.5c0.2-1.5,0.4-3,0.5-4.5c0.1-0.8,0.1-1.5,0.2-2.3
		c0-0.8,0.1-1.5,0.1-2.3c0.2-2.6,0.2-5.3,0.2-7.9c0-1.6,0-3.3-0.1-4.9c0.1-1.6,0.1-3.3,0.1-4.9c0-2.3,0.4-4.6,0.4-6.9
		c0-0.3,0-0.7,0-1c0.9-10.3,3.6-20.1,7.8-29.1c14-30.4,44.8-51.5,80.4-51.5c25.6,0,48.7,10.9,64.9,28.4c12.5,13.5,20.9,31,23.1,50.3
		c0.1,0.6,0.1,1.3,0.2,1.9h45.1c-0.1-1.9-0.2-3.8-0.4-5.7c0-0.1,0-0.1,0-0.2C498.2,540.4,461,496.3,411.3,480.5z"/>
	<path class="st0" d="M441.2,624.5c0.5-2.2,0.7-4.5,0.7-6.8c0-32.3-47.6-63.5-79.9-63.5c-30.7,0-55.9,23.7-58.2,53.9
		c0,0.1,0,0.2,0,0.3c0.2-0.1,0.5-0.3,0.8-0.4c12.6-7.1,33.9-16.8,55.2-15.3c-0.1,0-0.3,0.1-0.4,0.1c-12.1,2.8-22.3,6.7-30.7,10.7
		c24.4-3.4,55.2-4.1,80.3,6.8c-0.2,0-0.5-0.1-0.7-0.1c-55-6.2-92.6,7.1-103.8,11.8c-0.3,0.1-0.7,0.3-0.9,0.4l2.2,5.4c0,0,0,0,0,0
		c0.6,2.1,1.2,4.2,2,6.2c13.3,12.2,30.9,19.7,50.3,20c-0.3,0-0.5,0-0.8,0c-19.7,0-37.7-7.6-51.2-20c8.5,21.7,29.6,37.1,54.4,37.1
		c29.3,0,71.3-17.4,78.8-44.8C439.9,625.7,440.6,625.1,441.2,624.5z"/>
	<path class="st0" d="M215.3,646c0-2.6-2.1-4.7-4.7-4.7c-16,0-23.9,0-27.9,0.1c-3.7,0-6.9,0.1-8.1,2.4l-14,15.3
		c-1.7,1.9-1.6,4.8,0.3,6.6c0.9,0.8,2,1.2,3.1,1.2c1.3,0,2.5-0.5,3.4-1.5l13.4-14.6c2.9,0,10.4-0.1,29.8-0.1
		C213.2,650.6,215.3,648.5,215.3,646z"/>
	<path class="st0" d="M189.9,665.9c-1.7,0-3.1,1.5-3,3.2c0,1.7,1.4,3,3.1,3c0,0,0.1,0,0.1,0l5-0.1c1.7,0,3.1-1.5,3-3.2
		c-0.1-1.7-1.5-3.1-3.2-3L189.9,665.9z"/>
	<path class="st0" d="M141.5,661.8c-1.7,0-3.1,1.5-3,3.2c0,1.7,1.4,3,3.1,3c0,0,0.1,0,0.1,0l5-0.1c1.7,0,3.1-1.5,3-3.2
		c-0.1-1.7-1.5-3.1-3.2-3L141.5,661.8z"/>
	<path class="st0" d="M124,663.3c-0.9,0-1.5,0.7-1.5,1.6c0,0.8,0.7,1.5,1.6,1.5c0,0,0,0,0,0l5-0.1c0.9,0,1.5-0.7,1.5-1.6
		c0-0.9-0.7-1.5-1.6-1.5L124,663.3z"/>
	<path class="st0" d="M78.6,621.1l-5,0.1c-0.9,0-1.5,0.7-1.5,1.6c0,0.8,0.7,1.5,1.6,1.5c0,0,0,0,0,0l5-0.1c0.9,0,1.5-0.7,1.5-1.6
		C80.2,621.7,79.5,621.1,78.6,621.1z"/>
	<path class="st0" d="M224.6,623.1c0-2.6-2.1-4.7-4.7-4.7c-31.9,0-59,0.1-59,0.1c-2.6,0-4.6,2.1-4.6,4.7c0,0.1,0,0.1,0,0.2
		l-16.3,16.3h-26.2c-1.1-1-2.5-1.7-4.1-1.7c-3.3,0-5.9,2.6-5.9,5.9c0,3.3,2.6,5.9,5.9,5.9c2.6,0,4.7-1.6,5.5-3.9h26.1
		c0.8,0,1.6-0.3,2.2-0.9l17.2-17.2c0.1,0,0.2,0,0.2,0c0,0,0,0,0,0c0,0,27.1-0.1,59-0.1C222.6,627.8,224.6,625.7,224.6,623.1z"/>
	<path class="st0" d="M96,595.5l8.2,8.2c0.9,0.9,2,1.4,3.3,1.4c0,0,0,0,0,0c0,0,81.3-0.1,111.6-0.1c2.6,0,4.6-2.1,4.6-4.7
		c0-2.6-2.1-4.6-4.6-4.6c-13.4,0-36.7,0-58.6,0.1l-16-16c-1.2-1.2-3.2-1.2-4.4,0c-1.2,1.2-1.2,3.2,0,4.4l11.7,11.7
		c-19.6,0-36.7,0-42.3,0.1l-8.2-8.2c-0.9-0.9-2-1.4-3.3-1.4H83.8c-1-0.8-2.2-1.2-3.6-1.2c-3.2,0-5.9,2.6-5.9,5.9
		c0,3.3,2.6,5.9,5.9,5.9c1.3,0,2.6-0.5,3.6-1.2H96z"/>
	<path class="st0" d="M144.7,622.7c0-1.7-1.4-3.1-3.1-3.1H97.1c-1-1.7-2.9-2.9-5-2.9c-3.3,0-5.9,2.6-5.9,5.9c0,3.3,2.6,5.9,5.9,5.9
		c2.1,0,3.9-1.1,5-2.7h44.6C143.3,625.8,144.7,624.4,144.7,622.7z"/>
	<path class="st0" d="M122.2,579.5c-1.1,0-2.1,0.4-2.8,1.1h-5.6l-7.8-6.5c-0.6-0.5-1.2-0.7-2-0.7H87.5c-1.7,0-3.1,1.4-3.1,3.1
		c0,1.7,1.4,3.1,3.1,3.1h15.3l7.8,6.5c0.6,0.5,1.2,0.7,2,0.7h6.7c0.7,0.7,1.8,1.1,2.8,1.1c2.3,0,4.2-1.9,4.2-4.2
		S124.5,579.5,122.2,579.5z"/>
	<path class="st0" d="M131.4,565.3c2.1,0,4-1.1,5-2.8h8.9l17.2,17.2c0.6,0.6,1.4,0.9,2.2,0.9h0c0.1,0,14.4-0.2,45.8-0.2
		c1.7,0,3.1-1.4,3.1-3.1s-1.4-3.1-3.1-3.1c-26.2,0-40.4,0.1-44.6,0.1l-17.2-17.2c-0.6-0.6-1.4-0.9-2.2-0.9h-10.2
		c-1-1.7-2.9-2.8-5-2.8c-3.2,0-5.9,2.6-5.9,5.9S128.2,565.3,131.4,565.3z"/>
</g>
</svg>
